<mxfile host="app.diagrams.net" modified="2023-10-08T05:46:53.264Z" agent="Mozilla/5.0 (Macintosh; Intel Mac OS X 10_15_7) AppleWebKit/537.36 (KHTML, like Gecko) Chrome/117.0.0.0 Safari/537.36" version="21.8.2" etag="WZ-Zz3gSMXA_NJCUHG2f" type="github">
  <diagram name="第 1 页" id="Fyd_Y7TRlvN1uWd7dD7u">
    <mxGraphModel>
      <root>
        <mxCell id="0" />
        <mxCell id="1" parent="0" />
      </root>
    </mxGraphModel>
  </diagram>
</mxfile>
